# xmcd
#
# Track frame offsets: 
#        150
#        11707
#        26392
#        54320
#        68720
#        83052
#        97585
#        111232
#        127882
#        152875
#        164992
#        186850
#        210235
#        231097
#        234220
#        253662
#        269495
#        289467
#        310737
#        328685
#
# Disc length: 4431 seconds
#
# Revision: 6
# Processed by: cddbd v1.5.2PL0 Copyright (c) Steve Scherf et al.
# Submitted via: ExactAudioCopy v0.99pb5
#
DISCID=0d114d14
DTITLE=Petr Kalandra - Live and Studio
DYEAR=1998
DGENRE=Blues
TTITLE0=Chtel bych umet hrat blues
TTITLE1=Zivot te nauci
TTITLE2=Hospodskej
TTITLE3=Mestacke blues
TTITLE4=Will the Circle Be Unbroken
TTITLE5=Podzimni sen
TTITLE6=Pamatuj
TTITLE7=Nedy se jdu opit
TTITLE8=Tri dni ma nahanali
TTITLE9=To jsem ja
TTITLE10=Jak jste se mely, me mile deti
TTITLE11=Sweet Virginia
TTITLE12=Maggie's Farm
TTITLE13=Cesta domu
TTITLE14=As I Went Out One Morning
TTITLE15=San Francisco Bay Blues
TTITLE16=I Shall Be Released
TTITLE17=Blues stary zensky
TTITLE18=Spital u sv. Jakuba
TTITLE19=Gabriel's Mother's Hiway
EXTD=YEAR: 1998
EXTT0=
EXTT1=
EXTT2=
EXTT3=
EXTT4=
EXTT5=
EXTT6=
EXTT7=
EXTT8=
EXTT9=
EXTT10=
EXTT11=
EXTT12=
EXTT13=
EXTT14=
EXTT15=
EXTT16=
EXTT17=
EXTT18=
EXTT19=
PLAYORDER=
